<?xml version="1.0" standalone="no"?>
<!DOCTYPE svg PUBLIC "-//W3C//DTD SVG 20010904//EN"
 "http://www.w3.org/TR/2001/REC-SVG-20010904/DTD/svg10.dtd">
<svg version="1.0" xmlns="http://www.w3.org/2000/svg"
 width="300.000000pt" height="77.000000pt" viewBox="0 0 300.000000 77.000000"
 preserveAspectRatio="xMidYMid meet">
<metadata>
Created by potrace 1.10, written by Peter Selinger 2001-2011
</metadata>
<g transform="translate(0.000000,77.000000) scale(0.100000,-0.100000)"
fill="#ffffff" stroke="none">
<path d="M2181 666 c-8 -9 -11 -79 -9 -232 l3 -219 123 -3 122 -3 0 -29 c0
-22 -8 -33 -30 -47 -17 -10 -29 -24 -28 -33 5 -22 293 -28 301 -6 4 10 -6 23
-29 36 -26 17 -34 28 -34 51 l0 28 123 3 122 3 3 219 c2 153 -1 223 -9 232
-17 21 -641 21 -658 0z m647 -193 l2 -183 -320 0 -320 0 0 178 c0 98 3 182 7
185 4 4 146 6 317 5 l311 -3 3 -182z m2 -223 c0 -18 -8 -20 -142 -22 -91 -2
-141 -7 -138 -13 3 -5 11 -9 18 -9 7 1 12 -10 12 -29 0 -21 8 -38 26 -52 l25
-20 -121 0 c-117 0 -120 1 -99 17 15 13 39 18 85 18 36 0 64 4 64 10 0 6 -27
10 -61 10 -57 0 -60 1 -57 23 3 19 8 22 41 19 28 -2 37 1 37 13 0 13 -23 15
-165 15 -158 0 -165 1 -165 20 0 20 7 20 320 20 312 0 320 -1 320 -20z"/>
<path d="M2517 593 c-4 -3 -7 -19 -7 -35 l0 -28 140 0 c86 0 140 4 141 10 1 6
2 17 2 25 0 31 -4 35 -33 35 -16 0 -30 -4 -30 -10 0 -5 9 -10 20 -10 11 0 20
-7 20 -15 0 -12 -20 -15 -120 -15 -100 0 -120 3 -120 15 0 12 17 15 90 15 53
0 90 4 90 10 0 11 -182 14 -193 3z"/>
<path d="M2293 550 c-13 -5 -23 -16 -23 -25 0 -14 3 -14 30 0 33 17 70 20 70
5 0 -39 -74 -120 -110 -120 -13 0 -13 46 0 70 7 13 7 21 -1 25 -15 10 -19 3
-26 -39 -8 -48 12 -91 54 -117 60 -37 130 -12 159 58 19 44 8 88 -33 123 -35
31 -75 38 -120 20z m123 -47 c7 -10 14 -32 14 -50 l0 -32 -32 14 c-37 15 -38
18 -18 58 16 32 19 33 36 10z m-29 -85 c18 -7 33 -15 33 -18 0 -11 -34 -37
-57 -44 -19 -6 -93 16 -93 28 0 6 63 46 74 46 5 0 25 -5 43 -12z"/>
<path d="M2517 494 c-4 -4 -7 -20 -7 -36 l0 -29 93 3 92 3 0 30 0 30 -85 3
c-47 1 -89 0 -93 -4z m161 -31 c3 -10 -16 -13 -72 -13 -62 0 -76 3 -76 15 0
13 12 15 72 13 46 -2 73 -7 76 -15z"/>
<path d="M2514 386 c-15 -38 0 -51 59 -54 l57 -3 0 36 0 35 -55 0 c-39 0 -57
-4 -61 -14z m96 -21 c0 -11 -11 -15 -40 -15 -29 0 -40 4 -40 15 0 11 11 15 40
15 29 0 40 -4 40 -15z"/>
<path d="M270 648 c-50 -34 -77 -104 -62 -156 15 -50 40 -78 86 -97 43 -18 90
-13 126 15 35 27 19 35 -21 11 -44 -27 -78 -26 -120 2 -98 66 -52 227 64 227
27 0 48 -7 63 -21 12 -11 25 -16 28 -11 11 18 -34 45 -81 49 -39 4 -55 0 -83
-19z"/>
<path d="M770 644 c-56 -48 -73 -108 -49 -171 32 -84 138 -117 208 -64 18 14
24 28 24 59 0 23 -1 44 -4 46 -2 2 -31 6 -63 7 -42 2 -61 -1 -64 -10 -3 -9 9
-12 44 -11 70 3 69 3 68 -32 -2 -71 -95 -93 -158 -37 -42 36 -54 83 -37 139
17 57 59 84 122 78 28 -3 58 -13 69 -23 11 -10 20 -13 20 -7 0 6 -12 20 -26
31 -40 31 -113 29 -154 -5z"/>
<path d="M1287 652 c-19 -21 -22 -64 -7 -92 8 -15 6 -21 -10 -30 -25 -13 -47
-58 -42 -86 9 -55 98 -79 142 -39 20 18 21 17 45 -5 14 -13 28 -20 32 -16 5 4
-5 18 -21 31 -28 22 -28 25 -14 47 22 34 29 58 17 58 -5 0 -15 -13 -20 -30 -6
-16 -14 -30 -18 -30 -4 0 -24 18 -45 39 l-38 39 30 16 c44 23 59 62 35 95 -18
26 -64 28 -86 3z m73 -17 c11 -13 10 -21 -7 -43 -11 -15 -28 -27 -38 -27 -22
0 -35 33 -24 63 10 26 50 30 69 7z m-3 -217 c-68 -54 -144 27 -85 89 l23 24
42 -48 42 -48 -22 -17z"/>
<path d="M1740 525 c0 -95 4 -144 10 -140 6 3 10 30 10 59 0 87 17 88 90 7 35
-39 67 -68 72 -65 7 5 -13 30 -105 126 -17 18 -16 21 39 84 31 35 54 67 51 71
-6 5 -36 -26 -120 -122 l-26 -30 -1 72 c0 39 -4 75 -10 78 -6 4 -10 -45 -10
-140z"/>
<path d="M740 219 c0 -51 4 -78 10 -74 6 3 10 40 10 81 0 43 -4 74 -10 74 -6
0 -10 -34 -10 -81z"/>
<path d="M182 278 c-6 -6 -12 -33 -12 -59 0 -37 5 -51 21 -62 21 -15 55 -12
65 5 10 15 -3 20 -24 9 -28 -15 -44 8 -40 56 3 36 5 38 36 36 21 -1 32 3 29
10 -5 17 -60 20 -75 5z"/>
<path d="M780 227 c0 -64 12 -90 36 -80 19 7 18 23 -1 23 -10 0 -15 10 -15 30
0 20 5 30 15 30 8 0 15 5 15 10 0 6 -7 10 -15 10 -8 0 -15 9 -15 20 0 11 -4
20 -10 20 -6 0 -10 -28 -10 -63z"/>
<path d="M850 280 c0 -5 5 -10 10 -10 6 0 10 5 10 10 0 6 -4 10 -10 10 -5 0
-10 -4 -10 -10z"/>
<path d="M1620 280 c0 -5 7 -10 15 -10 8 0 15 5 15 10 0 6 -7 10 -15 10 -8 0
-15 -4 -15 -10z"/>
<path d="M286 234 c-22 -21 -20 -50 4 -74 24 -24 29 -24 58 -4 24 17 30 62 10
82 -17 17 -54 15 -72 -4z m64 -23 c14 -28 -13 -55 -41 -41 -19 10 -26 40 -12
53 13 14 43 7 53 -12z"/>
<path d="M390 199 c0 -26 5 -51 10 -54 6 -4 10 10 10 35 0 28 5 43 16 47 27
10 49 -11 50 -48 0 -19 4 -32 10 -29 13 7 9 67 -6 85 -7 9 -27 14 -51 13 l-39
-1 0 -48z"/>
<path d="M524 235 c-10 -25 4 -45 32 -45 16 0 24 -5 21 -12 -2 -7 -16 -13 -30
-13 -15 0 -28 -4 -29 -10 -5 -16 45 -17 67 -1 16 12 18 18 9 33 -6 10 -20 20
-30 21 -35 7 -39 22 -6 22 18 0 32 5 32 10 0 16 -60 12 -66 -5z"/>
<path d="M613 214 c7 -45 40 -78 65 -65 10 4 23 6 30 4 8 -3 12 10 12 46 0 28
-4 51 -10 51 -5 0 -10 -16 -10 -35 0 -24 -6 -37 -19 -45 -26 -13 -53 13 -49
48 2 15 -3 27 -11 30 -11 4 -13 -3 -8 -34z"/>
<path d="M850 201 c0 -28 5 -53 10 -56 6 -4 10 15 10 49 0 31 -4 56 -10 56 -5
0 -10 -22 -10 -49z"/>
<path d="M890 193 c0 -34 4 -52 10 -48 6 3 10 22 10 41 0 23 6 37 16 41 26 10
49 -11 49 -43 0 -16 5 -29 10 -29 14 0 10 61 -5 80 -7 9 -27 14 -51 13 l-39
-1 0 -54z"/>
<path d="M1032 238 c-35 -35 8 -109 50 -87 14 7 18 6 18 -5 0 -22 -31 -36 -53
-24 -15 8 -18 7 -15 -4 6 -17 55 -23 74 -7 9 8 14 32 14 74 l0 62 -38 1 c-21
1 -44 -4 -50 -10z m66 -35 c4 -30 -31 -49 -52 -27 -19 19 -20 26 -4 42 19 19
53 10 56 -15z"/>
<path d="M1214 235 c-10 -24 3 -43 31 -47 36 -4 31 -24 -6 -20 -20 1 -29 -2
-29 -13 0 -9 9 -15 23 -15 57 0 79 62 24 68 -34 4 -36 22 -2 22 14 0 25 5 25
10 0 16 -60 12 -66 -5z"/>
<path d="M1322 238 c-37 -37 12 -113 57 -88 26 13 28 35 4 25 -20 -7 -23 -8
-40 -6 -7 0 -13 6 -13 11 0 6 18 10 40 10 41 0 47 8 30 41 -12 22 -59 26 -78
7z m63 -18 c4 -6 -7 -10 -25 -10 -18 0 -29 4 -25 10 3 6 15 10 25 10 10 0 22
-4 25 -10z"/>
<path d="M1430 192 c0 -33 4 -51 10 -47 6 3 10 22 10 42 0 26 5 36 20 40 31 8
24 22 -10 20 -29 -2 -30 -3 -30 -55z"/>
<path d="M1526 198 c15 -29 28 -55 30 -56 3 -4 54 93 54 103 0 18 -20 -1 -35
-32 l-18 -37 -19 37 c-10 20 -23 37 -28 37 -6 0 2 -24 16 -52z"/>
<path d="M1629 211 c-1 -23 -2 -45 -3 -51 -1 -5 3 -11 8 -12 12 -4 15 91 4 98
-4 3 -9 -13 -9 -35z"/>
<path d="M1675 230 c-37 -41 17 -108 62 -75 10 7 15 17 11 21 -4 4 -14 2 -21
-4 -19 -16 -50 8 -45 34 3 14 11 19 36 17 21 -1 32 3 29 10 -7 21 -52 19 -72
-3z"/>
<path d="M1783 238 c-26 -33 -19 -69 15 -87 20 -10 66 4 57 19 -4 7 -12 7 -24
0 -13 -6 -24 -5 -37 5 -17 13 -15 14 29 15 51 0 61 14 29 43 -22 20 -56 22
-69 5z m62 -18 c4 -6 -7 -10 -25 -10 -18 0 -29 4 -25 10 3 6 15 10 25 10 10 0
22 -4 25 -10z"/>
<path d="M1890 235 c-17 -20 3 -45 37 -45 15 0 23 -5 20 -12 -2 -7 -16 -13
-30 -13 -15 0 -27 -4 -27 -10 0 -9 13 -10 58 -6 8 1 12 11 10 29 -2 21 -9 28
-30 30 -35 4 -37 22 -4 22 14 0 28 5 31 10 10 16 -51 12 -65 -5z"/>
</g>
</svg>
